<?xml version="1.0" encoding="UTF-8" standalone="no"?>
<svg
   xmlns:dc="http://purl.org/dc/elements/1.1/"
   xmlns:cc="http://creativecommons.org/ns#"
   xmlns:rdf="http://www.w3.org/1999/02/22-rdf-syntax-ns#"
   xmlns:svg="http://www.w3.org/2000/svg"
   xmlns="http://www.w3.org/2000/svg"
   xmlns:sodipodi="http://sodipodi.sourceforge.net/DTD/sodipodi-0.dtd"
   xmlns:inkscape="http://www.inkscape.org/namespaces/inkscape"
   id="Candidate"
   viewBox="0 0 256 256"
   version="1.1"
   sodipodi:docname="nextCloud-logo.svg"
   inkscape:version="0.92.3 (2405546, 2018-03-11)">
  <metadata
     id="metadata68">
    <rdf:RDF>
      <cc:Work
         rdf:about="">
        <dc:format>image/svg+xml</dc:format>
        <dc:type
           rdf:resource="http://purl.org/dc/dcmitype/StillImage" />
      </cc:Work>
    </rdf:RDF>
  </metadata>
  <sodipodi:namedview
     pagecolor="#ffffff"
     bordercolor="#666666"
     borderopacity="1"
     objecttolerance="10"
     gridtolerance="10"
     guidetolerance="10"
     inkscape:pageopacity="0"
     inkscape:pageshadow="2"
     inkscape:window-width="1218"
     inkscape:window-height="1001"
     id="namedview66"
     showgrid="false"
     inkscape:zoom="0.921875"
     inkscape:cx="128"
     inkscape:cy="-24.731623"
     inkscape:window-x="-8"
     inkscape:window-y="40"
     inkscape:window-maximized="1"
     inkscape:current-layer="Candidate" />
  <defs
     id="defs41">
    <style
       id="style2">.cls-1{fill:#00bbc4;}.cls-2{fill:#d38700;}.cls-3{fill:url(#linear-gradient);}</style>
    <linearGradient
       id="linear-gradient"
       x1="71.03"
       y1="128"
       x2="184.97"
       y2="128"
       gradientUnits="userSpaceOnUse">
      <stop
         offset="0"
         id="stop4" />
      <stop
         offset="0.05"
         stop-color="#040404"
         id="stop6" />
      <stop
         offset="0.11"
         stop-color="#111"
         id="stop8" />
      <stop
         offset="0.17"
         stop-color="#252525"
         id="stop10" />
      <stop
         offset="0.23"
         stop-color="#434343"
         id="stop12" />
      <stop
         offset="0.28"
         stop-color="#686868"
         id="stop14" />
      <stop
         offset="0.34"
         stop-color="#969696"
         id="stop16" />
      <stop
         offset="0.4"
         stop-color="#cbcbcb"
         id="stop18" />
      <stop
         offset="0.45"
         stop-color="#fff"
         id="stop20" />
      <stop
         offset="0.55"
         stop-color="#fff"
         id="stop22" />
      <stop
         offset="0.6"
         stop-color="#cbcbcb"
         id="stop24" />
      <stop
         offset="0.66"
         stop-color="#969696"
         id="stop26" />
      <stop
         offset="0.72"
         stop-color="#686868"
         id="stop28" />
      <stop
         offset="0.77"
         stop-color="#434343"
         id="stop30" />
      <stop
         offset="0.83"
         stop-color="#252525"
         id="stop32" />
      <stop
         offset="0.89"
         stop-color="#111"
         id="stop34" />
      <stop
         offset="0.95"
         stop-color="#040404"
         id="stop36" />
      <stop
         offset="1"
         id="stop38" />
    </linearGradient>
  </defs>
  <title
     id="title43">Artboard 1</title>
  <g
     id="g885"
     transform="matrix(1.1977466,0,0,1.1977466,-25.313156,-25.308629)">
    <path
       id="path45"
       d="M 128,190 A 61.9,61.9 0 1 1 171.84,171.87 61.58,61.58 0 0 1 128,190 Z m 0,-92 a 29.94,29.94 0 1 0 21.21,8.77 A 29.77,29.77 0 0 0 128,98 Z"
       inkscape:connector-curvature="0" />
    <path
       id="path47"
       d="m 65.77,107.76 a 42,42 0 1 1 29.7,-12.29 41.71,41.71 0 0 1 -29.7,12.29 z m 0,-52 a 10,10 0 1 0 7.08,2.92 10,10 0 0 0 -7.08,-2.9 z"
       inkscape:connector-curvature="0" />
    <path
       id="path49"
       d="m 39.61,91.94 a 37,37 0 1 1 52.33,0 37.06,37.06 0 0 1 -52.33,0 z M 76.38,55.17 a 15,15 0 1 0 0,21.21 15,15 0 0 0 0,-21.21 z"
       class="cls-1"
       inkscape:connector-curvature="0"
       style="fill:#00bbc4" />
    <path
       id="path51"
       d="m 190.23,232.21 a 42,42 0 1 1 29.69,-12.29 41.69,41.69 0 0 1 -29.69,12.29 z m 0,-52 a 10,10 0 1 0 7.07,2.92 9.93,9.93 0 0 0 -7.07,-2.9 z"
       inkscape:connector-curvature="0" />
    <path
       id="path53"
       d="m 164.06,216.39 a 37,37 0 1 1 52.33,0 37.06,37.06 0 0 1 -52.33,0 z m 36.77,-36.77 a 15,15 0 1 0 0,21.21 15,15 0 0 0 0,-21.21 z"
       class="cls-1"
       inkscape:connector-curvature="0"
       style="fill:#00bbc4" />
    <path
       id="path55"
       d="m 190.23,107.76 a 42,42 0 1 1 29.69,-12.29 41.73,41.73 0 0 1 -29.69,12.29 z m 0,-52 a 10,10 0 1 0 0,20 v 0 a 10,10 0 1 0 0,-20 z"
       inkscape:connector-curvature="0" />
    <path
       id="path57"
       d="m 164.06,91.94 a 37,37 0 1 1 52.33,0 37.06,37.06 0 0 1 -52.33,0 z m 36.77,-36.77 a 15,15 0 1 0 0,21.21 15,15 0 0 0 0,-21.21 z"
       class="cls-2"
       inkscape:connector-curvature="0"
       style="fill:#d38700" />
    <path
       id="path59"
       d="m 65.77,232.21 a 42,42 0 1 1 29.7,-12.29 41.66,41.66 0 0 1 -29.7,12.29 z m 0,-52 a 10,10 0 1 0 7.08,2.92 10,10 0 0 0 -7.08,-2.9 z"
       inkscape:connector-curvature="0" />
    <path
       id="path61"
       d="m 39.61,216.39 a 37,37 0 1 1 52.33,0 37.06,37.06 0 0 1 -52.33,0 z m 36.77,-36.77 a 15,15 0 1 0 0,21.21 15,15 0 0 0 0,-21.21 z"
       class="cls-2"
       inkscape:connector-curvature="0"
       style="fill:#d38700" />
    <path
       id="path63"
       d="m 87.69,168.31 a 57,57 0 1 1 80.62,0 57.08,57.08 0 0 1 -80.62,0 z m 65.06,-65.06 a 35,35 0 1 0 0,49.5 35,35 0 0 0 0,-49.5 z"
       class="cls-3"
       style="fill:url(#linear-gradient)"
       inkscape:connector-curvature="0" />
  </g>
</svg>
