<?xml version="1.0" encoding="UTF-8" standalone="no"?>
<svg
   xmlns:dc="http://purl.org/dc/elements/1.1/"
   xmlns:cc="http://creativecommons.org/ns#"
   xmlns:rdf="http://www.w3.org/1999/02/22-rdf-syntax-ns#"
   xmlns:svg="http://www.w3.org/2000/svg"
   xmlns="http://www.w3.org/2000/svg"
   xmlns:sodipodi="http://sodipodi.sourceforge.net/DTD/sodipodi-0.dtd"
   xmlns:inkscape="http://www.inkscape.org/namespaces/inkscape"
   viewBox="0 0 1283 1124"
   version="1.1"
   id="svg50"
   sodipodi:docname="Outage.svg"
   inkscape:version="1.0.1 (3bc2e813f5, 2020-09-07)"
   width="1283"
   height="1124">
  <metadata
     id="metadata54">
    <rdf:RDF>
      <cc:Work
         rdf:about="">
        <dc:format>image/svg+xml</dc:format>
        <dc:type
           rdf:resource="http://purl.org/dc/dcmitype/StillImage" />
        <dc:title></dc:title>
      </cc:Work>
    </rdf:RDF>
  </metadata>
  <sodipodi:namedview
     pagecolor="#ffffff"
     bordercolor="#666666"
     borderopacity="1"
     objecttolerance="10"
     gridtolerance="10"
     guidetolerance="10"
     inkscape:pageopacity="0"
     inkscape:pageshadow="2"
     inkscape:window-width="1417"
     inkscape:window-height="978"
     id="namedview52"
     showgrid="false"
     inkscape:zoom="0.3"
     inkscape:cx="622.87645"
     inkscape:cy="908.10188"
     inkscape:window-x="-6"
     inkscape:window-y="-6"
     inkscape:window-maximized="1"
     inkscape:current-layer="svg50"
     inkscape:document-rotation="0"
     fit-margin-top="32"
     fit-margin-left="32"
     fit-margin-right="32"
     fit-margin-bottom="32"
     lock-margins="true" />
  <defs
     id="defs12">
    <style
       id="style2">.cls-1{filter:url(#luminosity-noclip);}.cls-2{fill:#1c1c1c;}.cls-3{fill:#d47200;}.cls-4{fill:#00bbc4;}.cls-5{mask:url(#mask);}.cls-6{fill:#d39c00;}.cls-7{fill:#d38700;}.cls-8{fill:#d47c00;}.cls-9{fill:none;stroke:#d47200;stroke-miterlimit:10;stroke-width:36px;}</style>
    <filter
       id="luminosity-noclip"
       x="365.76001"
       y="24.780001"
       width="1188.48"
       height="1029.25"
       filterUnits="userSpaceOnUse"
       color-interpolation-filters="sRGB">
      <feFlood
         flood-color="#fff"
         result="bg"
         id="feFlood4" />
      <feBlend
         in="SourceGraphic"
         in2="bg"
         id="feBlend6"
         mode="normal" />
    </filter>
    <mask
       id="mask"
       x="365.76"
       y="24.78"
       width="1188.48"
       height="1029.25"
       maskUnits="userSpaceOnUse">
      <polygon
         class="cls-1"
         points="1375.3,809.36 1427.38,823.53 1431.18,888.64 1279.55,948.77 1247.77,913.15 1196.45,840.38 1335.47,811.66 "
         id="polygon9" />
    </mask>
  </defs>
  <g
     id="Symbol"
     transform="translate(-318.76038,22.236685)">
    <polygon
       class="cls-2"
       points="960,57.6 1522.36,1022.03 1505.51,1038.02 414.79,1038.02 401,1022.03 "
       id="polygon14" />
    <circle
       class="cls-2"
       cx="1207.86"
       cy="309.42999"
       r="14.29"
       id="circle16" />
    <path
       class="cls-2"
       d="m 1228.41,290.91 a 8.8,8.8 0 1 0 -8.8,-8.8 8.8,8.8 0 0 0 8.8,8.8 z"
       id="path18" />
    <path
       class="cls-2"
       d="m 960,995 q 28.47,0 48.08,-19.61 19.61,-19.61 19.61,-52.39 0,-23.64 -9.94,-39.22 -9.94,-15.58 -25.25,-23.1 a 74,74 0 0 0 -65,0 62.38,62.38 0 0 0 -25.25,23.1 q -10,15.59 -9.94,39.22 0,32.76 19.61,52.38 Q 931.53,995 960,995 Z"
       id="path20" />
    <path
       class="cls-2"
       d="m 1567.23,1046.53 -120.35,-208.46 -0.71,-16.3 A 15,15 0 0 0 1435.26,808 l -6.87,-1.94 -242.2,-419.5 c 10,-11.41 17,-19.94 19.41,-22.92 a 33,33 0 0 0 8.11,-21.65 32.24,32.24 0 0 0 -0.23,-3.82 29.32,29.32 0 0 0 23.67,-28.73 29.66,29.66 0 0 0 -0.44,-5 23.8,23.8 0 1 0 -32,-24.1 29.33,29.33 0 0 0 -26.11,28.7 33.19,33.19 0 0 0 -24.35,13.19 c -1,1.21 -2,2.45 -3,3.73 L 973,17.28 a 15,15 0 0 0 -26,0 l -263.85,457 a 340.6,340.6 0 0 0 -70.33,60.36 c -41.38,47.14 -61.4,99 -57.91,149.87 0.23,3.3 0.57,6.68 1,10.11 l -203.14,351.91 a 15,15 0 0 0 13,22.5 h 1188.47 a 15,15 0 0 0 13,-22.5 z M 1034.07,429.15 q 0,-0.48 0,-1 V 247.12 l 73.56,127.41 c -27.34,28.18 -50.1,47.17 -63.21,52.63 -3.53,1.47 -7,2.77 -10.51,3.91 z m 35.76,58.94 c 19.07,-7.95 43.25,-26.2 72,-54.35 l 201,348.1 -93.16,-26.35 a 15.27,15.27 0 0 0 -4.08,-0.56 15.08,15.08 0 0 0 -3.53,0.42 l -85.64,20.72 c -48.36,-22.48 -96.15,-34.65 -142.29,-36.23 l 15.39,-239.68 a 196.77,196.77 0 0 0 40.31,-12.07 z M 960,118.78 l 62.94,109 a 15.19,15.19 0 0 0 -3.84,-0.49 H 900.9 a 15.19,15.19 0 0 0 -3.84,0.49 z m -74.1,128.34 v 173.67 a 274.76,274.76 0 0 0 -31.72,-1.89 c -5.08,0 -10.2,0.15 -15.22,0.46 a 277.67,277.67 0 0 0 -58.37,10.16 z M 724.92,526 C 763,502.32 805.85,487.52 843,485.24 c 3.57,-0.22 7.25,-0.33 10.91,-0.33 a 235.79,235.79 0 0 1 35.79,3 l 16.65,259.29 a 15,15 0 0 0 3.07,8.17 c -28.18,9.82 -50.52,22.7 -71,34.54 -27.29,15.75 -47,27.13 -72.85,27.13 a 94.44,94.44 0 0 1 -10.36,-0.59 C 699.38,810.23 639.65,756.68 624.32,700.26 Z m 258,481.08 a 79.53,79.53 0 0 0 35.82,-21 c 15.93,-15.93 24,-37.12 24,-63 0,-18.57 -4.14,-34.48 -12.3,-47.29 a 77.59,77.59 0 0 0 -31.28,-28.5 89,89 0 0 0 -78.24,0 77.51,77.51 0 0 0 -31.28,28.49 c -8.16,12.79 -12.29,28.7 -12.29,47.29 0,25.87 8.07,47.07 24,63 a 79.5,79.5 0 0 0 35.81,21 H 447.17 L 583.62,770.69 a 242.33,242.33 0 0 0 35.16,45 c 36.82,37.15 83.86,61.35 129.07,66.39 a 163.6,163.6 0 0 0 17.94,1 c 43.2,0 74.91,-18.29 105.59,-36 28.31,-16.33 55.06,-31.76 95.5,-38.42 a 227.14,227.14 0 0 1 36.82,-3 c 27.52,0 56.28,4.91 85.63,14.61 l 5.47,52.77 a 15,15 0 0 0 6.81,11.08 l 161.61,103.78 a 14.94,14.94 0 0 0 8.1,2.38 15.12,15.12 0 0 0 6,-1.23 l 23.68,-10.28 14.23,7.35 a 14.91,14.91 0 0 0 6.88,1.68 15.08,15.08 0 0 0 6.2,-1.34 L 1404,952.15 a 15,15 0 0 0 8.78,-14.52 l -0.41,-7.09 13.07,-5.66 47.43,82.15 z"
       id="path22" />
    <path
       class="cls-2"
       d="m 1554.24,1054 -122.19,-211.61 -0.87,-20 -12.74,-3.61 L 1167.8,384.7 c 14,-15.59 23.9,-27.74 26.34,-30.75 a 18,18 0 1 0 -28,-22.58 c -4.64,5.77 -10.53,12.8 -17.25,20.5 L 960,24.78 694.34,484.92 a 328.58,328.58 0 0 0 -70.24,59.61 c -38.68,44.06 -57.43,92.11 -54.21,138.94 0.32,4.68 0.89,9.39 1.67,14.11 L 365.76,1054 Z m -146.61,-177 -7.6,3 -1.77,-32.12 8.62,14.94 z m -17.87,7 -7.91,3.07 -2.9,-47.1 -44.11,-14.23 7.87,-2.44 44.3,14 z m -18.61,7.23 -8.24,3.2 -3.81,-47.8 -43,-15.09 8.12,-2.52 43.78,14.58 z m -19.39,7.54 -8.6,3.34 -3.7,-48.9 -42.67,-15.68 8.39,-2.6 43.06,15.34 z m -20.24,7.86 -9,3.49 -4.14,-49.85 -41.61,-16.54 8.68,-2.69 42.1,16.16 z m -43.23,16.8 -9.82,3.81 -5.14,-51.85 -38.64,-18.61 9.3,-2.89 39.38,18.11 z m -110.66,-83.59 83.78,39.54 v 0 l -83.77,-39.54 z m 78.47,10.3 9,-2.78 40.9,17.05 4.41,50.4 -9.38,3.65 -4.62,-50.83 z m 124.73,-32.43 -10.32,-3 7.27,-2.25 z m 4.29,7.42 3.39,5.88 -35.51,-10.92 7.62,-2.36 z m 37.58,0.17 v 1 l -0.68,-1.18 z m -48.42,-18.94 -128.7,-36.4 -90.78,22 c -68,-32.55 -133.79,-43.84 -196.2,-33.57 -49.61,8.17 -83.13,27.51 -112.71,44.58 -31.46,18.15 -56.31,32.49 -92.39,28.46 C 688.14,824.08 622.26,761.83 608.27,698 L 713.78,515.24 c 40.33,-25.71 86.39,-42.4 128.3,-45 21.91,-1.35 42.25,1.27 61.83,4.84 l 17.41,271.13 h 77.36 l 16.64,-259.12 a 179.53,179.53 0 0 0 48.74,-12.88 c 24.14,-10.05 55.19,-38.31 81,-65 z m -248,-429.57 c -26.11,27.7 -56.47,56.09 -76,64.25 a 146.29,146.29 0 0 1 -32.55,9.44 l 1.43,-22.26 V 242.3 H 900.9 v 185.89 l 0.64,10 c -19.13,-3.16 -39.28,-5.19 -61.66,-3.82 -29.78,1.83 -61.35,9.64 -92.53,22.76 L 960,88.78 Z m -496.6,220.12 -7.19,12.46 c 2.27,-4.31 4.68,-8.47 7.19,-12.46 z m -0.24,208.2 c 34.44,34.76 78.21,57.37 120.07,62 a 146.34,146.34 0 0 0 16.28,0.92 c 39.18,0 67.9,-16.56 98.09,-34 28.23,-16.29 57.43,-33.13 100.57,-40.23 44.1,-7.26 90.57,-2.07 138.82,15.38 l 6.45,62.28 161.6,103.76 30.24,-13.1 20.55,10.62 75.65,-34.31 -1,-17.55 35,-15.14 67.1,116.23 H 421.19 l 163.08,-282.4 a 219.84,219.84 0 0 0 45.17,65.54 z"
       id="path24" />
    <path
       class="cls-3"
       d="m 958.6,758.33 c -49.61,8.17 -83.13,27.51 -112.71,44.58 -31.46,18.15 -56.31,32.49 -92.39,28.46 -71.16,-7.93 -142.93,-81 -147.7,-150.37 -3.21,-46.8 22.89,-87.13 45.35,-112.72 47.9,-54.55 124.63,-93.94 190.93,-98 29.66,-1.83 56.45,3.61 82.36,8.86 42.27,8.58 86,17.45 139.62,-4.89 C 1111.87,454.33 1186.81,363 1194.14,354 a 18,18 0 1 0 -28,-22.58 c -24.56,30.54 -84.26,96.47 -115.88,109.64 -43.45,18.09 -78.29,11 -118.62,2.84 -28.2,-5.71 -57.35,-11.63 -91.72,-9.52 -37.48,2.3 -77.8,14.05 -116.61,34 -38.42,19.73 -72.71,46.08 -99.17,76.22 -38.68,44.06 -57.43,92.11 -54.21,138.94 2.88,42 24.59,86.37 59.55,121.64 34.44,34.76 78.21,57.37 120.07,62 a 146.34,146.34 0 0 0 16.28,0.92 c 39.18,0 67.9,-16.56 98.09,-34 28.23,-16.29 57.43,-33.13 100.57,-40.23 65.68,-10.82 136.64,5.95 210.89,49.82 l 18.32,-31 C 1111.93,764.4 1032.85,746.11 958.6,758.33 Z"
       id="path26" />
    <circle
       class="cls-3"
       cx="1207.86"
       cy="309.42999"
       r="14.29"
       id="circle28" />
    <circle
       class="cls-3"
       cx="1228.41"
       cy="282.10999"
       r="8.8000002"
       id="circle30" />
    <path
       class="cls-4"
       d="m 960,995 q -28.49,0 -48.08,-19.61 -19.59,-19.61 -19.61,-52.39 0,-23.64 9.94,-39.22 a 62.38,62.38 0 0 1 25.25,-23.1 74,74 0 0 1 65,0 q 15.32,7.53 25.25,23.1 9.93,15.57 9.94,39.22 0,32.76 -19.61,52.38 Q 988.47,995 960,995 Z m 38.68,-248.76 h -77.36 l -20.42,-318 V 242.3 h 118.2 v 185.89 z"
       id="path32" />
    <g
       class="cls-5"
       mask="url(#mask)"
       id="g36">
      <path
         class="cls-4"
         d="M 1554.24,1054 H 365.76 L 960,24.78 Z m -1133,-32 H 1498.81 L 960,88.78 Z"
         id="path34" />
    </g>
    <polygon
       class="cls-6"
       points="1305.18,834.9 1348.24,850.24 1359.1,846.6 1316.13,831.51 1324.25,828.99 1368.04,843.6 1378.95,839.94 1334.84,825.71 1342.7,823.27 1387.01,837.24 1397.48,833.73 1352.96,820.09 1360.58,817.73 1405.22,831.13 1415.27,827.76 1370.51,814.65 1377.89,812.37 1422.7,825.27 1431.18,822.42 1245.58,769.93 1102.78,804.49 1261.42,879.36 1273.33,875.36 1234.69,856.75 1243.99,853.86 1283.37,871.99 1296.38,867.63 1256.1,850.11 1265.09,847.33 1305.97,864.41 1318.4,860.24 1276.79,843.7 1285.47,841.01 1327.57,857.17 1339.46,853.18 1296.79,837.5 "
       id="polygon38" />
    <polygon
       class="cls-7"
       points="1348.24,850.24 1351.76,898.74 1343.16,902.08 1339.46,853.18 1327.57,857.17 1331.52,906.6 1322.54,910.09 1318.4,860.24 1305.97,864.41 1310.38,914.82 1301,918.46 1296.38,867.63 1283.37,871.99 1288.29,923.4 1278.47,927.21 1273.33,875.36 1261.4,879.36 1271.32,975.28 1320.51,953.97 1322.11,972.8 1397.76,938.49 1396.76,920.94 1434.75,904.48 1431.18,822.42 1422.7,825.27 1424.79,870.36 1417.49,873.2 1415.27,827.76 1405.22,831.13 1407.63,877.03 1400.03,879.98 1397.48,833.73 1387.01,837.24 1389.76,883.97 1381.85,887.04 1378.95,839.94 1368.04,843.6 1371.15,891.2 1362.91,894.4 1359.1,846.6 "
       id="polygon40" />
    <polygon
       class="cls-8"
       points="1271.32,975.28 1261.4,879.36 1102.78,804.49 1109.72,871.52 "
       id="polygon42" />
    <polygon
       class="cls-8"
       points="1301.56,962.18 1320.51,953.97 1322.11,972.8 "
       id="polygon44" />
  </g>
</svg>
